<svg width="24" height="24" viewBox="0 0 24 24" fill="none" xmlns="http://www.w3.org/2000/svg">
<path fill-rule="evenodd" clip-rule="evenodd" d="M12 2C12.4248 2 12.7692 2.3444 12.7692 2.76923V11.2308H21.2308C21.6556 11.2308 22 11.5752 22 12C22 12.4248 21.6556 12.7692 21.2308 12.7692H12.7692V21.2308C12.7692 21.6556 12.4248 22 12 22C11.5752 22 11.2308 21.6556 11.2308 21.2308V12.7692H2.76923C2.3444 12.7692 2 12.4248 2 12C2 11.5752 2.3444 11.2308 2.76923 11.2308H11.2308V2.76923C11.2308 2.3444 11.5752 2 12 2Z" fill="#ffffff"/>
</svg>
