<svg width="448" height="448" viewBox="0 0 448 448" fill="none" xmlns="http://www.w3.org/2000/svg">
<path d="M446.507 357.227C416 305.707 374.869 277.333 330.667 277.333C286.464 277.333 245.312 305.707 214.827 357.227C213.855 358.875 213.342 360.753 213.342 362.667C213.342 364.58 213.855 366.459 214.827 368.107C245.291 419.627 286.443 448 330.667 448C374.891 448 416 419.627 446.507 368.107C447.479 366.459 447.991 364.58 447.991 362.667C447.991 360.753 447.479 358.875 446.507 357.227ZM330.667 426.667C295.787 426.667 262.528 403.989 236.501 362.667C262.528 321.323 295.787 298.667 330.667 298.667C365.547 298.667 398.784 321.344 424.832 362.667C398.805 404.011 365.525 426.667 330.667 426.667ZM330.667 320C307.136 320 288 339.136 288 362.667C288 386.197 307.136 405.333 330.667 405.333C354.197 405.333 373.333 386.197 373.333 362.667C373.333 339.136 354.176 320 330.667 320ZM330.667 384C325.009 384 319.582 381.752 315.582 377.752C311.581 373.751 309.333 368.325 309.333 362.667C309.333 357.009 311.581 351.582 315.582 347.582C319.582 343.581 325.009 341.333 330.667 341.333C336.325 341.333 341.751 343.581 345.752 347.582C349.752 351.582 352 357.009 352 362.667C352 368.325 349.752 373.751 345.752 377.752C341.751 381.752 336.325 384 330.667 384ZM187.115 384H74.6667C60.527 383.983 46.9713 378.359 36.973 368.36C26.9747 358.362 21.3503 344.806 21.3333 330.667V192H384V256.555C391.275 259.605 398.4 263.232 405.333 267.541V117.333C405.333 76.16 371.84 42.6667 330.667 42.6667H298.667V10.6667C298.667 7.83769 297.543 5.12458 295.542 3.12419C293.542 1.12381 290.829 0 288 0C285.171 0 282.458 1.12381 280.458 3.12419C278.457 5.12458 277.333 7.83769 277.333 10.6667V42.6667H128V10.6667C128 7.83769 126.876 5.12458 124.876 3.12419C122.875 1.12381 120.162 0 117.333 0C114.504 0 111.791 1.12381 109.791 3.12419C107.79 5.12458 106.667 7.83769 106.667 10.6667V42.6667H74.6667C33.4933 42.6667 0 76.16 0 117.333V330.667C0 371.84 33.4933 405.333 74.6667 405.333H201.045C196.288 398.741 191.659 391.787 187.285 384.405C187.221 384.277 187.2 384.128 187.115 384ZM21.3333 117.333C21.3333 87.936 45.2267 64 74.6667 64H106.667V96C106.667 98.829 107.79 101.542 109.791 103.542C111.791 105.543 114.504 106.667 117.333 106.667C120.162 106.667 122.875 105.543 124.876 103.542C126.876 101.542 128 98.829 128 96V64H277.333V96C277.333 98.829 278.457 101.542 280.458 103.542C282.458 105.543 285.171 106.667 288 106.667C290.829 106.667 293.542 105.543 295.542 103.542C297.543 101.542 298.667 98.829 298.667 96V64H330.667C360.085 64 384 87.936 384 117.333V170.667H21.3333V117.333Z" fill="black"/>
</svg>
