<svg width="24" height="24" viewBox="0 0 24 24" fill="none" xmlns="http://www.w3.org/2000/svg">
<path fill-rule="evenodd" clip-rule="evenodd" d="M8.91429 2C9.34033 2 9.68571 2.3444 9.68571 2.76923V4.05128H14.3143V2.76923C14.3143 2.3444 14.6597 2 15.0857 2C15.5118 2 15.8571 2.3444 15.8571 2.76923V4.05128H18.1714C19.7336 4.05128 21 5.31407 21 6.8718V19.1795C21 20.7372 19.7336 22 18.1714 22H5.82857C4.26639 22 3 20.7372 3 19.1795V6.8718C3 5.31407 4.26639 4.05128 5.82857 4.05128H8.14286V2.76923C8.14286 2.3444 8.48824 2 8.91429 2ZM8.14286 5.58974H5.82857C5.11849 5.58974 4.54286 6.16374 4.54286 6.8718V10.2051H19.4571V6.8718C19.4571 6.16374 18.8815 5.58974 18.1714 5.58974H15.8571V6.8718C15.8571 7.29663 15.5118 7.64103 15.0857 7.64103C14.6597 7.64103 14.3143 7.29663 14.3143 6.8718V5.58974H9.68571V6.8718C9.68571 7.29663 9.34033 7.64103 8.91429 7.64103C8.48824 7.64103 8.14286 7.29663 8.14286 6.8718V5.58974ZM19.4571 11.7436H4.54286V19.1795C4.54286 19.8875 5.11849 20.4615 5.82857 20.4615H18.1714C18.8815 20.4615 19.4571 19.8875 19.4571 19.1795V11.7436Z" fill="#848588"/>
</svg>
