<svg width="24" height="24" viewBox="0 0 24 24" fill="none" xmlns="http://www.w3.org/2000/svg">
<path d="M12 10.3654C12.8264 10.3654 13.533 10.6531 14.1198 11.2287C14.7066 11.8042 15 12.4972 15 13.3077C15 14.1182 14.7066 14.8112 14.1198 15.3867C13.533 15.9622 12.8264 16.25 12 16.25C11.1736 16.25 10.467 15.9622 9.88021 15.3867C9.2934 14.8112 9 14.1182 9 13.3077C9 12.4972 9.2934 11.8042 9.88021 11.2287C10.467 10.6531 11.1736 10.3654 12 10.3654ZM19.3333 6.11538C20.0694 6.11538 20.6979 6.37079 21.2188 6.88161C21.7396 7.39243 22 8.00881 22 8.73077V17.8846C22 18.6066 21.7396 19.223 21.2188 19.7338C20.6979 20.2446 20.0694 20.5 19.3333 20.5H4.66667C3.93056 20.5 3.30208 20.2446 2.78125 19.7338C2.26042 19.223 2 18.6066 2 17.8846V8.73077C2 8.00881 2.26042 7.39243 2.78125 6.88161C3.30208 6.37079 3.93056 6.11538 4.66667 6.11538H7L7.53125 4.72596C7.66319 4.39223 7.90451 4.10447 8.25521 3.86268C8.6059 3.62089 8.96528 3.5 9.33333 3.5H14.6667C15.0347 3.5 15.3941 3.62089 15.7448 3.86268C16.0955 4.10447 16.3368 4.39223 16.4688 4.72596L17 6.11538H19.3333ZM12 17.8846C13.2847 17.8846 14.3837 17.4368 15.2969 16.5412C16.2101 15.6455 16.6667 14.5677 16.6667 13.3077C16.6667 12.0477 16.2101 10.9699 15.2969 10.0742C14.3837 9.17859 13.2847 8.73077 12 8.73077C10.7153 8.73077 9.61632 9.17859 8.70312 10.0742C7.78993 10.9699 7.33333 12.0477 7.33333 13.3077C7.33333 14.5677 7.78993 15.6455 8.70312 16.5412C9.61632 17.4368 10.7153 17.8846 12 17.8846Z" fill="#848588"/>
</svg>
