<svg width="10" height="10" viewBox="0 0 10 10" fill="none" xmlns="http://www.w3.org/2000/svg">
<path fill-rule="evenodd" clip-rule="evenodd" d="M7.24007 3.21193C7.39917 3.34451 7.42067 3.58097 7.28808 3.74008L4.87571 6.63492C4.68749 6.86079 4.34595 6.87629 4.13805 6.66839L2.73484 5.26517C2.58839 5.11873 2.58839 4.88129 2.73484 4.73484C2.88128 4.5884 3.11872 4.5884 3.26517 4.73484L4.4748 5.94448L6.71192 3.25994C6.8445 3.10084 7.08097 3.07934 7.24007 3.21193Z" fill="#BDBDBD"/>
<path fill-rule="evenodd" clip-rule="evenodd" d="M9 0.75H1C0.861929 0.75 0.75 0.861929 0.75 1V9C0.75 9.13807 0.861929 9.25 1 9.25H9C9.13807 9.25 9.25 9.13807 9.25 9V1C9.25 0.861929 9.13807 0.75 9 0.75ZM1 0C0.447715 0 0 0.447716 0 1V9C0 9.55229 0.447716 10 1 10H9C9.55229 10 10 9.55228 10 9V1C10 0.447715 9.55229 0 9 0H1Z" fill="#BDBDBD"/>
</svg>
