<svg width="24" height="24" viewBox="0 0 24 24" fill="none" xmlns="http://www.w3.org/2000/svg">
<path d="M12 13.25C12.6213 13.25 13.125 12.7463 13.125 12.125C13.125 11.5037 12.6213 11 12 11C11.3787 11 10.875 11.5037 10.875 12.125C10.875 12.7463 11.3787 13.25 12 13.25Z" fill="#848588"/>
<path d="M19.875 13.25C20.4963 13.25 21 12.7463 21 12.125C21 11.5037 20.4963 11 19.875 11C19.2537 11 18.75 11.5037 18.75 12.125C18.75 12.7463 19.2537 13.25 19.875 13.25Z" fill="#848588"/>
<path d="M4.125 13.25C4.74632 13.25 5.25 12.7463 5.25 12.125C5.25 11.5037 4.74632 11 4.125 11C3.50368 11 3 11.5037 3 12.125C3 12.7463 3.50368 13.25 4.125 13.25Z" fill="#848588"/>
<path d="M12 13.25C12.6213 13.25 13.125 12.7463 13.125 12.125C13.125 11.5037 12.6213 11 12 11C11.3787 11 10.875 11.5037 10.875 12.125C10.875 12.7463 11.3787 13.25 12 13.25Z" stroke="#848588" stroke-linecap="round" stroke-linejoin="round"/>
<path d="M19.875 13.25C20.4963 13.25 21 12.7463 21 12.125C21 11.5037 20.4963 11 19.875 11C19.2537 11 18.75 11.5037 18.75 12.125C18.75 12.7463 19.2537 13.25 19.875 13.25Z" stroke="#848588" stroke-linecap="round" stroke-linejoin="round"/>
<path d="M4.125 13.25C4.74632 13.25 5.25 12.7463 5.25 12.125C5.25 11.5037 4.74632 11 4.125 11C3.50368 11 3 11.5037 3 12.125C3 12.7463 3.50368 13.25 4.125 13.25Z" stroke="#848588" stroke-linecap="round" stroke-linejoin="round"/>
</svg>
