<svg width="24" height="24" viewBox="0 0 24 24" fill="none" xmlns="http://www.w3.org/2000/svg">
<path fill-rule="evenodd" clip-rule="evenodd" d="M12 3.53846C9.01766 3.53846 6.6 5.94924 6.6 8.92308C6.6 11.0907 6.05896 13.2305 5.53184 14.8074C5.3303 15.4103 5.12871 15.937 4.9559 16.359H19.0441C18.8713 15.937 18.6697 15.4103 18.4682 14.8074C17.941 13.2305 17.4 11.0907 17.4 8.92308C17.4 5.94924 14.9823 3.53846 12 3.53846ZM20.9187 16.7844C21.0381 17.0228 21.0253 17.3059 20.8848 17.5326C20.7442 17.7594 20.4959 17.8974 20.2286 17.8974H15.8571V18.1538C15.8571 20.278 14.1302 22 12 22C9.86976 22 8.14286 20.278 8.14286 18.1538V17.8974H3.77143C3.50407 17.8974 3.25577 17.7594 3.11521 17.5326C2.97472 17.3059 2.96189 17.0229 3.08127 16.7845C3.08127 16.7845 3.08127 16.7845 3.08128 16.7845L3.08131 16.7845L3.08131 16.7845L3.08133 16.7844C3.08137 16.7843 3.08141 16.7843 3.08144 16.7842L3.08185 16.7834L3.08516 16.7767L3.10012 16.7461C3.11368 16.7181 3.13423 16.6753 3.16077 16.6186C3.21386 16.5052 3.29085 16.3363 3.3838 16.1201C3.56987 15.6871 3.81898 15.0663 4.06816 14.3208C4.56961 12.8208 5.05714 10.858 5.05714 8.92308C5.05714 5.09957 8.16557 2 12 2C15.8344 2 18.9429 5.09957 18.9429 8.92308C18.9429 10.858 19.4304 12.8208 19.9318 14.3208C20.181 15.0663 20.4301 15.6871 20.6162 16.1201C20.7092 16.3363 20.7861 16.5052 20.8392 16.6186C20.8658 16.6753 20.8863 16.7181 20.8999 16.7461L20.9148 16.7767L20.9181 16.7834L20.9186 16.7842C20.9186 16.7843 20.9186 16.7843 20.9187 16.7844ZM9.68572 17.8974V18.1538C9.68572 19.4283 10.7219 20.4615 12 20.4615C13.2781 20.4615 14.3143 19.4283 14.3143 18.1538V17.8974H9.68572Z" fill="#848588"/>
</svg>
