<svg width="16" height="16" viewBox="0 0 16 16" fill="none" xmlns="http://www.w3.org/2000/svg">
<path fill-rule="evenodd" clip-rule="evenodd" d="M11.3601 5.31789C11.5988 5.51677 11.631 5.87146 11.4321 6.11012L7.63831 10.6627C7.45009 10.8886 7.10855 10.9041 6.90065 10.6962L4.60225 8.39776C4.38258 8.17809 4.38258 7.82194 4.60225 7.60227C4.82192 7.3826 5.17808 7.3826 5.39775 7.60227L7.2122 9.41672L10.5679 5.38991C10.7668 5.15125 11.1214 5.11901 11.3601 5.31789Z" fill="#848588"/>
<path fill-rule="evenodd" clip-rule="evenodd" d="M14 1.625H2C1.79289 1.625 1.625 1.79289 1.625 2V14C1.625 14.2071 1.79289 14.375 2 14.375H14C14.2071 14.375 14.375 14.2071 14.375 14V2C14.375 1.79289 14.2071 1.625 14 1.625ZM2 0.5C1.17157 0.5 0.5 1.17157 0.5 2V14C0.5 14.8284 1.17157 15.5 2 15.5H14C14.8284 15.5 15.5 14.8284 15.5 14V2C15.5 1.17157 14.8284 0.5 14 0.5H2Z" fill="#848588"/>
</svg>
