<svg width="24" height="24" viewBox="0 0 24 24" fill="none" xmlns="http://www.w3.org/2000/svg">
<path fill-rule="evenodd" clip-rule="evenodd" d="M9.48252 5.54839C8.01636 5.54839 6.89511 6.67607 6.89511 7.98566C6.89511 9.29526 8.01636 10.4229 9.48252 10.4229C10.9487 10.4229 12.0699 9.29526 12.0699 7.98566C12.0699 6.67607 10.9487 5.54839 9.48252 5.54839ZM5.35664 7.98566C5.35664 5.74796 7.24103 4 9.48252 4C11.724 4 13.6084 5.74796 13.6084 7.98566C13.6084 10.2234 11.724 11.9713 9.48252 11.9713C7.24103 11.9713 5.35664 10.2234 5.35664 7.98566ZM13.7483 4.77419C13.7483 4.34662 14.0926 4 14.5175 4C16.759 4 18.6434 5.74796 18.6434 7.98566C18.6434 10.2234 16.759 11.9713 14.5175 11.9713C14.0926 11.9713 13.7483 11.6247 13.7483 11.1971C13.7483 10.7696 14.0926 10.4229 14.5175 10.4229C15.9836 10.4229 17.1049 9.29526 17.1049 7.98566C17.1049 6.67607 15.9836 5.54839 14.5175 5.54839C14.0926 5.54839 13.7483 5.20177 13.7483 4.77419ZM2 17.6201C2 15.3824 3.88439 13.6344 6.12587 13.6344H12.8392C15.0806 13.6344 16.965 15.3824 16.965 17.6201V19.2258C16.965 19.6534 16.6206 20 16.1958 20C15.771 20 15.4266 19.6534 15.4266 19.2258V17.6201C15.4266 16.3105 14.3053 15.1828 12.8392 15.1828H6.12587C4.65971 15.1828 3.53846 16.3105 3.53846 17.6201V19.2258C3.53846 19.6534 3.19407 20 2.76923 20C2.3444 20 2 19.6534 2 19.2258V17.6201ZM16.6853 14.4086C16.6853 13.981 17.0297 13.6344 17.4545 13.6344H17.8741C20.1156 13.6344 22 15.3824 22 17.6201V19.2258C22 19.6534 21.6556 20 21.2308 20C20.8059 20 20.4615 19.6534 20.4615 19.2258V17.6201C20.4615 16.3105 19.3403 15.1828 17.8741 15.1828H17.4545C17.0297 15.1828 16.6853 14.8362 16.6853 14.4086Z" fill="#848588"/>
</svg>
