<?xml version="1.0" encoding="UTF-8"?><svg id="Layer_2" xmlns="http://www.w3.org/2000/svg" viewBox="0 0 317.28 74.37"><defs><style>.cls-1{fill:#fff;}</style></defs><g id="Layer_1-2"><g><g><path class="cls-1" d="M68.35,37.19c0,17.21-13.95,31.16-31.16,31.16S6.02,54.4,6.02,37.19,19.97,6.02,37.19,6.02c3.27,0,6.41,.5,9.37,1.44,1.55-1.53,3.17-3.1,4.84-4.64-4.38-1.81-9.18-2.82-14.21-2.82C16.65,0,0,16.65,0,37.19s16.65,37.19,37.19,37.19,37.19-16.65,37.19-37.19h-6.02Z"/><polygon class="cls-1" points="32.37 52.66 15.69 35.98 21.35 30.32 32.37 41.34 63.17 10.54 68.83 16.2 32.37 52.66"/></g><g><path class="cls-1" d="M91.73,24.69V15.87h36.11v8.82h-12.68V57.89h-10.75V24.69h-12.68Z"/><path class="cls-1" d="M139.35,58.32c-2.27,0-4.35-.59-6.25-1.79-1.89-1.19-3.41-2.98-4.53-5.38-1.13-2.39-1.69-5.4-1.69-9.03s.59-6.83,1.77-9.21c1.18-2.38,2.72-4.13,4.61-5.26,1.89-1.13,3.9-1.69,6.03-1.69,1.6,0,2.99,.28,4.16,.83,1.18,.55,2.15,1.28,2.93,2.17,.78,.89,1.37,1.85,1.78,2.87h.18v-5.46h10.79v31.51h-10.71v-5.15h-.27c-.44,1.03-1.06,1.96-1.86,2.81-.8,.85-1.78,1.52-2.94,2.02s-2.5,.75-4.02,.75Zm3.9-8.35c1.12,0,2.08-.32,2.86-.96,.79-.64,1.4-1.55,1.83-2.72s.65-2.55,.65-4.15-.21-3.02-.64-4.19c-.42-1.16-1.03-2.06-1.83-2.69-.79-.63-1.75-.94-2.87-.94s-2.07,.31-2.85,.94c-.78,.63-1.37,1.53-1.78,2.7-.41,1.17-.62,2.56-.62,4.17s.21,3.01,.62,4.17c.41,1.17,1,2.07,1.78,2.71s1.73,.95,2.85,.95Z"/><path class="cls-1" d="M193.35,36.39l-9.95,.08c-.07-.64-.3-1.21-.71-1.69-.4-.49-.93-.86-1.58-1.13-.65-.27-1.37-.4-2.17-.4-1.05,0-1.95,.2-2.7,.6-.75,.4-1.11,.95-1.1,1.66-.01,.52,.21,.99,.67,1.42,.46,.42,1.31,.75,2.55,.98l6.28,1.15c3.19,.6,5.56,1.6,7.13,2.98,1.57,1.39,2.36,3.24,2.37,5.55-.01,2.22-.67,4.14-1.97,5.76-1.3,1.63-3.07,2.89-5.31,3.78-2.24,.89-4.8,1.33-7.67,1.33-4.69,0-8.37-.96-11.03-2.88-2.66-1.92-4.16-4.48-4.5-7.66l10.71-.08c.18,1.05,.7,1.86,1.57,2.42,.87,.56,1.97,.84,3.31,.84,1.15,0,2.09-.2,2.81-.6,.72-.4,1.09-.96,1.11-1.67-.01-.64-.32-1.16-.91-1.54-.59-.38-1.52-.69-2.78-.92l-5.56-1.01c-3.19-.57-5.57-1.64-7.15-3.2-1.58-1.56-2.36-3.56-2.35-6.01-.01-2.16,.56-4,1.71-5.51,1.16-1.51,2.81-2.67,4.95-3.47,2.15-.8,4.69-1.2,7.63-1.2,4.43,0,7.93,.92,10.49,2.77,2.56,1.85,3.94,4.4,4.13,7.65Z"/><path class="cls-1" d="M198.72,57.89V15.87h10.81V57.89h-10.81Zm9.72-7.8l.06-12.86h1.44l8.12-10.85h12.19l-12.95,16.37h-2.97l-5.89,7.34Zm9.77,7.8l-7.63-12.72,7.08-7.67,12.99,20.39h-12.43Z"/><path class="cls-1" d="M233.37,15.87h13.56l10.11,24.68h.49l10.13-24.68h13.54V57.89h-10.65v-24.91h-.33l-9.66,24.6h-6.57l-9.64-24.74h-.35v25.05h-10.65V15.87Z"/><path class="cls-1" d="M302.06,58.46c-3.34,0-6.21-.65-8.63-1.94-2.41-1.29-4.27-3.15-5.56-5.58-1.29-2.43-1.94-5.33-1.94-8.71s.65-6.1,1.95-8.54c1.3-2.44,3.14-4.34,5.51-5.69,2.37-1.35,5.17-2.03,8.4-2.03,2.31,0,4.42,.36,6.33,1.09,1.91,.73,3.54,1.78,4.9,3.17,1.36,1.39,2.41,3.08,3.15,5.08,.74,2,1.11,4.26,1.11,6.79v2.58h-27.84v-6.07h17.87c-.01-.97-.25-1.83-.72-2.57-.47-.75-1.09-1.33-1.88-1.75-.79-.42-1.69-.64-2.7-.64s-1.91,.21-2.73,.65-1.47,1.02-1.95,1.78c-.48,.75-.73,1.62-.76,2.61v6.42c0,1.12,.23,2.11,.69,2.97,.46,.86,1.11,1.53,1.96,2.01,.85,.48,1.87,.72,3.06,.72,.82,0,1.57-.11,2.25-.34,.68-.23,1.26-.56,1.74-1.01s.85-.98,1.1-1.61l9.89,.1c-.37,2.15-1.21,4.01-2.52,5.58-1.31,1.57-3.04,2.79-5.19,3.65-2.15,.86-4.64,1.29-7.49,1.29Z"/></g></g></g></svg>